<?xml version="1.0" standalone="no"?>
<!DOCTYPE svg PUBLIC "-//W3C//DTD SVG 20010904//EN"
 "http://www.w3.org/TR/2001/REC-SVG-20010904/DTD/svg10.dtd">
<svg version="1.0" xmlns="http://www.w3.org/2000/svg"
 width="57.000000pt" height="60.000000pt" viewBox="0 0 57.000000 60.000000"
 preserveAspectRatio="xMidYMid meet">
<metadata>
Created by potrace 1.16, written by Peter Selinger 2001-2019
</metadata>
<g transform="translate(0.000000,60.000000) scale(0.100000,-0.100000)"
fill="#000000" stroke="none">
<path d="M187 589 c-10 -6 -25 -8 -32 -5 -8 3 -14 1 -12 -3 1 -5 -17 -23 -40
-40 -36 -26 -43 -37 -43 -66 0 -50 37 -141 67 -165 29 -22 43 -19 23 5 -22 26
0 16 26 -12 l25 -28 -6 40 c-9 53 -11 55 -50 55 -39 0 -55 14 -18 16 38 3 41
14 10 40 -15 13 -25 24 -21 24 3 0 -1 11 -10 25 -15 23 -15 24 1 18 12 -5 14
-3 8 7 -5 9 -4 11 3 6 7 -4 12 -18 12 -30 0 -32 27 -55 36 -31 4 10 2 26 -4
36 -7 11 -8 20 -2 24 6 3 10 -1 10 -9 0 -9 4 -16 10 -16 6 0 6 -9 1 -23 -12
-32 29 -143 47 -125 19 19 15 34 -15 57 -16 12 -20 18 -10 15 15 -6 16 -3 7
21 -12 33 -12 35 0 35 6 0 10 -9 10 -20 0 -11 5 -20 11 -20 6 0 9 -6 6 -14 -3
-8 1 -20 10 -27 13 -11 18 -10 35 10 19 24 19 24 -9 54 -27 30 -27 30 -3 15
26 -16 40 -10 53 22 4 10 6 9 6 -6 1 -11 -4 -25 -11 -32 -25 -25 4 -24 30 1
16 15 37 27 48 26 17 0 17 -1 -2 -9 -28 -11 -42 -32 -17 -25 10 3 -3 -5 -29
-17 -25 -13 -57 -36 -70 -53 -22 -29 -11 -27 26 4 11 9 16 10 12 3 -6 -10 -1
-11 21 -6 15 4 34 11 41 17 8 6 12 6 12 -2 0 -6 -5 -11 -11 -11 -5 0 -7 -4 -4
-10 3 -6 -5 -10 -19 -10 -31 0 -77 -20 -71 -31 3 -4 -4 -5 -16 -2 -19 5 -38
-9 -39 -30 0 -12 71 3 98 20 26 16 124 35 116 21 -3 -4 -20 -8 -37 -9 -27 0
-29 -2 -12 -9 17 -7 15 -9 -12 -9 -40 -1 -54 -20 -16 -23 38 -2 45 -1 68 6 15
5 15 4 -2 -5 -21 -11 -22 -13 -5 -25 15 -12 13 -13 -18 -8 -19 3 -44 10 -56
15 -11 6 -40 9 -65 7 l-44 -3 -2 -80 c-3 -69 -1 -78 11 -63 18 25 23 23 30
-12 4 -24 11 -30 30 -30 19 0 24 -4 19 -16 -4 -10 1 -20 11 -26 9 -5 14 -13
11 -19 -7 -10 28 2 73 25 35 18 109 92 126 125 14 28 20 283 6 261 -5 -9 -10
-6 -15 10 -11 33 -90 116 -126 130 -17 7 -26 16 -20 19 6 4 -36 8 -92 9 -59 1
-110 -2 -120 -9z"/>
<path d="M32 297 c-32 -10 -33 -12 -28 -46 4 -20 8 -48 10 -63 4 -29 34 -77
63 -99 13 -9 12 -6 -3 11 -48 56 -56 82 -10 32 44 -48 121 -100 132 -89 7 7 6
191 -2 210 -6 16 -14 18 -58 12 -28 -4 -60 -9 -71 -12 -16 -4 -17 -3 -8 7 6 7
25 13 41 14 44 2 48 12 11 25 -36 12 -33 13 -77 -2z"/>
</g>
</svg>
