<?xml version="1.0" standalone="no"?>
<!DOCTYPE svg PUBLIC "-//W3C//DTD SVG 1.0//EN" "http://www.w3.org/TR/2001/REC-SVG-20010904/DTD/svg10.dtd">
<svg xmlns="http://www.w3.org/2000/svg" xmlns:xlink="http://www.w3.org/1999/xlink" id="body_1" width="68" height="72">

<g transform="matrix(1.1929824 0 0 1.1929824 -0 0.42105076)">
	<g transform="matrix(0.1 0 -0 -0.1 0 60)">
	</g>
    <path transform="matrix(0.1 0 -0 -0.1 0 60)"  d="M187 589C 177 583 162 581 155 584C 147 587 141 585 143 581C 144 576 126 558 103 541C 67 515 60 504 60 475C 60 425 97 334 127 310C 156 288 170 291 150 315C 128 341 150 331 176 303L176 303L201 275L195 315C 186 368 184 370 145 370C 106 370 90 384 127 386C 165 389 168 400 137 426C 122 439 112 450 116 450C 119 450 115 461 106 475C 91 498 91 499 107 493C 119 488 121 490 115 500C 110 509 111 511 118 506C 125 502 130 488 130 476C 130 444 157 421 166 445C 170 455 168 471 162 481C 155 492 154 501 160 505C 166 508 170 504 170 496C 170 487 174 480 180 480C 186 480 186 471 181 457C 169 425 210 314 228 332C 247 351 243 366 213 389C 197 401 193 407 203 404C 218 398 219 401 210 425C 198 458 198 460 210 460C 216 460 220 451 220 440C 220 429 225 420 231 420C 237 420 240 414 237 406C 234 398 238 386 247 379C 260 368 265 369 282 389C 301 413 301 413 273 443C 246 473 246 473 270 458C 296 442 310 448 323 480C 327 490 329 489 329 474C 330 463 325 449 318 442C 293 417 322 418 348 443C 364 458 385 470 396 469C 413 469 413 468 394 460C 366 449 352 428 377 435C 387 438 374 430 348 418C 323 405 291 382 278 365C 256 336 267 338 304 369C 315 378 320 379 316 372C 310 362 315 361 337 366C 352 370 371 377 378 383C 386 389 390 389 390 381C 390 375 385 370 379 370C 374 370 372 366 375 360C 378 354 370 350 356 350C 325 350 279 330 285 319C 288 315 281 314 269 317C 250 322 231 308 230 287C 230 275 301 290 328 307C 354 323 452 342 444 328C 441 324 424 320 407 319C 380 319 378 317 395 310C 412 303 410 301 383 301C 343 300 329 281 367 278C 405 276 412 277 435 284C 450 289 450 288 433 279C 412 268 411 266 428 254C 443 242 441 241 410 246C 391 249 366 256 354 261C 343 267 314 270 289 268L289 268L245 265L243 185C 240 116 242 107 254 122C 272 147 277 145 284 110C 288 86 295 80 314 80C 333 80 338 76 333 64C 329 54 334 44 344 38C 353 33 358 25 355 19C 348 9 383 21 428 44C 463 62 537 136 554 169C 568 197 574 452 560 430C 555 421 550 424 545 440C 534 473 455 556 419 570C 402 577 393 586 399 589C 405 593 363 597 307 598C 248 599 197 596 187 589z" stroke="none" fill="#000000" fill-rule="nonzero" />
	<g transform="matrix(0.1 0 -0 -0.1 0 60)">
	</g>
    <path transform="matrix(0.1 0 -0 -0.1 0 60)"  d="M32 297C 0 287 -1 285 4 251C 8 231 12 203 14 188C 18 159 48 111 77 89C 90 80 89 83 74 100C 26 156 18 182 64 132C 108 84 185 32 196 43C 203 50 202 234 194 253C 188 269 180 271 136 265C 108 261 76 256 65 253C 49 249 48 250 57 260C 63 267 82 273 98 274C 142 276 146 286 109 299C 73 311 76 312 32 297z" stroke="none" fill="#000000" fill-rule="nonzero" />
</g>
</svg>